# xmcd
#
# Track frame offsets:
#	150
#	13108
#	22419
#	33122
#	43591
#	56035
#	72719
#	82770
#	95441
#	107057
#	121286
#	131341
#	140504
#	153844
#	173843
#	186374
#	198972
#	212566
#	224912
#	237589
#	246898
#	260728
#	270385
#	279904
#	298248
#	314512
#
# Disc length: 4372 seconds
#
# Revision: 0
# Processed by: cddbd v1.5.2PL0 Copyright (c) Steve Scherf et al.
# Submitted via: EasyCDDAExtractor 16.0.6.1
#
DISCID=9011121a
DTITLE=Tapio Heinonen - en kadu mitään - kaikki levytykset cd 2
DYEAR=1900
DGENRE=
TTITLE0=När livetbörjar le
TTITLE1=Kom kom kom
TTITLE2=Adjö du gamla stad
TTITLE3=När lyckan är störst
TTITLE4=Kan jag tro på vad du säger
TTITLE5=Don juan
TTITLE6=I min dröm
TTITLE7=Snart är det tid
TTITLE8=Vita pärlör
TTITLE9=Då sagan är en saga
TTITLE10=Tro't eller ej
TTITLE11=Allt de sköna ska jag minnas
TTITLE12=Rain of love
TTITLE13=Windmills of your mind
TTITLE14=Love story
TTITLE15=Yesterday when I was young
TTITLE16=How insensitive
TTITLE17=I'll never fall in love again
TTITLE18=Though i see i've never known
TTITLE19=Ramblin rose
TTITLE20=If i could
TTITLE21=Annie laurie
TTITLE22=Snowbird
TTITLE23=Danny boy
TTITLE24=Help me make it through the night
TTITLE25=When i loved her
EXTD=
EXTT0=
EXTT1=
EXTT2=
EXTT3=
EXTT4=
EXTT5=
EXTT6=
EXTT7=
EXTT8=
EXTT9=
EXTT10=
EXTT11=
EXTT12=
EXTT13=
EXTT14=
EXTT15=
EXTT16=
EXTT17=
EXTT18=
EXTT19=
EXTT20=
EXTT21=
EXTT22=
EXTT23=
EXTT24=
EXTT25=
PLAYORDER=
